PathFileType	4	(X/Y/Z)	F:\shared\Remotetake0125-Body25.trc
DataRate	CameraRate	NumFrames	NumMarkers	Units	OrigDataRate	OrigDataStartFrame	OrigNumFrames	useTimeStamp
60		60		4		79		mm		60		900		1799		1																					
Frame#	Time	Timestamp	HeadTop			LHeadFront			LHeadBack			RHeadFront			RHeadBack			C7			T10			CLAV			STRN			LShoulderFront			LShoulderBack			LUArmHigh			LElbow			LElbowIn			LForearm			LWristIn			LWristOut			LHandIn			LHandOut			RShoulderFront			RShoulderBack			RUArmHigh			RElbow			RElbowIn			RForearm			RWristIn			RWristOut			RHandIn			RHandOut			WaistLFront			WaistLSide			WaistLBack			WaistRFront			WaistRSide			WaistRBack			LThigh			LKnee			LKneeIn			LShin			LAnkleOut			LHeel			LMT5			LMT1			LToe			RThigh			RKnee			RKneeIn			RShin			RAnkleOut			RHeel			RMT5			RMT1			RToe			C7			C7			STRN			STRN			LUArmHigh			LForearm			RUArmHigh			RForearm			WaistLFront			WaistLFront			WaistLSide			WaistLSide			WaistLBack			WaistLBack			WaistRFront			WaistRFront			WaistRSide			WaistRSide			WaistRBack			WaistRBack			LThigh			LShin			RThigh			RShin			LShoulderFront			RShoulderFront			
			X1	Y1	Z1	X2	Y2	Z2	X3	Y3	Z3	X4	Y4	Z4	X5	Y5	Z5	X6	Y6	Z6	X7	Y7	Z7	X8	Y8	Z8	X9	Y9	Z9	X10	Y10	Z10	X11	Y11	Z11	X12	Y12	Z12	X13	Y13	Z13	X14	Y14	Z14	X15	Y15	Z15	X16	Y16	Z16	X17	Y17	Z17	X18	Y18	Z18	X19	Y19	Z19	X20	Y20	Z20	X21	Y21	Z21	X22	Y22	Z22	X23	Y23	Z23	X24	Y24	Z24	X25	Y25	Z25	X26	Y26	Z26	X27	Y27	Z27	X28	Y28	Z28	X29	Y29	Z29	X30	Y30	Z30	X31	Y31	Z31	X32	Y32	Z32	X33	Y33	Z33	X34	Y34	Z34	X35	Y35	Z35	X36	Y36	Z36	X37	Y37	Z37	X38	Y38	Z38	X39	Y39	Z39	X40	Y40	Z40	X41	Y41	Z41	X42	Y42	Z42	X43	Y43	Z43	X44	Y44	Z44	X45	Y45	Z45	X46	Y46	Z46	X47	Y47	Z47	X48	Y48	Z48	X49	Y49	Z49	X50	Y50	Z50	X51	Y51	Z51	X52	Y52	Z52	X53	Y53	Z53	X54	Y54	Z54	X55	Y55	Z55	X56	Y56	Z56	X57	Y57	Z57	X58	Y58	Z58	X59	Y59	Z59	X60	Y60	Z60	X61	Y61	Z61	X62	Y62	Z62	X63	Y63	Z63	X64	Y64	Z64	X65	Y65	Z65	X66	Y66	Z66	X67	Y67	Z67	X68	Y68	Z68	X69	Y69	Z69	X70	Y70	Z70	X71	Y71	Z71	X72	Y72	Z72	X73	Y73	Z73	X74	Y74	Z74	X75	Y75	Z75	X76	Y76	Z76	X77	Y77	Z77	X78	Y78	Z78	X79	Y79	Z79	

900	14.983	1702448226589	223.804703	405.454529	1585.964844	117.637268	340.606781	1539.607666	171.395050	232.935318	1589.805542	292.027771	358.032043	1557.890991	222.165176	238.102890	1594.786255	272.936584	83.831322	1419.282227	289.471283	8.958110	1122.646240	239.638504	265.472382	1254.327148	241.710785	289.940582	1054.431885	104.852951	214.105515	1311.540649	68.376617	77.866676	1368.838623	-11.336443	128.010712	1237.645874	-32.366344	141.261581	1118.488770	19.343649	56.983917	1054.138916																366.501953	246.614532	1324.605957	416.719666	117.616272	1355.414185	494.796631	234.227509	1213.638062																						100.149048	209.008194	926.997498	63.696274	96.791344	934.674316	155.323166	-7.078455	943.216125	354.681549	234.305664	919.622314				337.363068	18.146826	942.132507	48.197079	198.069824	629.599976																									369.955170	235.025436	658.911133	393.350128	117.401840	455.398254				368.156555	134.800568	208.288513	345.093506	105.932076	61.685497	292.347748	50.578129	81.491875	377.174500	222.358719	23.111801	251.885330	229.834061	18.574476	320.962402	255.918472	50.863636																																																																															
901	15.000	1702448226606	217.974396	409.328583	1584.531494	112.096504	344.306519	1537.691284	165.683533	236.835846	1588.279053	286.347870	362.024292	1556.981812	216.424255	242.009216	1593.649170	268.035217	87.375221	1418.620728	286.670502	12.788397	1122.110962	237.061127	269.328796	1253.863525	240.392944	294.638672	1054.211182	101.533096	218.734024	1309.766602	63.552299	82.608597	1366.354492	-14.564028	134.707550	1234.505859	-33.000759	150.089279	1114.766846	16.966118	65.076958	1050.604492																362.833191	250.170517	1324.794922	412.481049	120.736122	1356.038940	491.942474	237.695374	1214.974976																						100.065224	216.940536	927.834045	62.639023	103.297440	932.614929	153.816223	-1.113961	941.122192	354.078949	239.231613	920.402405				336.059509	23.084887	941.483337	49.790222	202.518402	627.484253																									370.292572	239.324905	659.031738	392.264435	122.197083	456.141113				368.391785	135.579224	208.471039	345.362183	105.455658	61.877346	292.606689	50.453827	81.592834	376.914612	222.931152	24.063015	251.989532	229.479462	18.577650	320.969391	255.496658	50.948856																																																																															
902	15.016	1702448226623	211.830338	413.366089	1582.908569	106.432068	348.322113	1535.405762	159.714890	240.772415	1586.625488	280.542938	366.002228	1555.979248	210.319992	246.141373	1592.381836	262.747162	90.983070	1417.798340	283.649719	16.565767	1121.332275	233.872696	273.145752	1252.949097	238.799484	299.250275	1053.801392	98.046761	223.956879	1307.410400	58.283054	87.490974	1363.707397	-18.056032	141.183533	1231.098389	-34.179897	158.741180	1110.827271	13.245566	72.953064	1046.598511																358.688446	253.667374	1324.510010	407.947510	123.892258	1356.551758	488.661865	241.164627	1216.271729																						99.267082	223.092026	926.112244	61.785057	109.760132	929.973877	152.062744	4.689530	939.009521	353.292450	244.015701	921.186951				334.585022	27.794664	941.030457	53.120312	207.897369	623.045044																									370.960175	243.837708	659.686829	390.466400	128.006561	455.447754				368.676514	136.867249	208.376694	345.394104	105.389404	61.890526	292.770538	50.592464	81.783394	376.888153	222.884613	24.001398	253.337463	230.463913	20.221642	320.972900	255.059647	50.900322																																																																															
903	15.033	1702448226652	205.610703	418.012848	1581.760742	100.489769	352.804596	1533.306274	153.493896	245.359360	1585.141113	274.641449	370.498871	1554.909424	204.081039	250.718735	1591.166748	257.156586	94.350891	1417.259766	280.224579	19.967783	1120.777100	229.879196	277.541595	1251.885132	236.889496	303.871399	1053.102417	93.686455	228.658844	1305.228394	52.624851	92.447334	1361.123413	-21.992554	147.603638	1227.411133	-35.348038	167.212799	1106.672119	11.004010	80.666725	1042.903809																355.381500	257.498199	1325.537964	403.120148	127.080650	1357.044922	485.175110	244.778763	1217.209961																						99.223854	230.303558	923.107483	61.505054	117.294739	926.576843	150.028534	9.769774	937.028259	352.727234	248.094910	922.016418				333.340607	31.819746	940.445618	55.688175	214.030823	619.368652																									372.044281	248.578217	660.296265	389.484802	132.935669	455.407227				368.814636	138.673798	208.637070	345.190521	105.568123	62.217060	292.625031	50.893902	82.318436	376.741241	222.839005	23.878330	252.869003	229.935532	19.632151	320.798950	254.853973	50.947235																																																																															
